<svg width="18" height="18" viewBox="0 0 18 18" fill="none" xmlns="http://www.w3.org/2000/svg">
<path d="M14.516 3.41367C13.043 1.93711 11.0813 1.125 8.99648 1.125C4.69336 1.125 1.1918 4.62656 1.1918 8.92969C1.1918 10.3043 1.55039 11.6473 2.23242 12.832L1.125 16.875L5.26289 15.7887C6.40195 16.4109 7.68516 16.7379 8.99297 16.7379H8.99648C13.2961 16.7379 16.875 13.2363 16.875 8.9332C16.875 6.84844 15.9891 4.89023 14.516 3.41367ZM8.99648 15.423C7.8293 15.423 6.68672 15.1102 5.6918 14.5195L5.45625 14.3789L3.00234 15.0223L3.65625 12.6281L3.50156 12.382C2.85117 11.3484 2.51016 10.1566 2.51016 8.92969C2.51016 5.3543 5.42109 2.44336 9 2.44336C10.7332 2.44336 12.3609 3.11836 13.5844 4.34531C14.8078 5.57227 15.5602 7.2 15.5566 8.9332C15.5566 12.5121 12.5719 15.423 8.99648 15.423ZM12.5543 10.5645C12.3609 10.466 11.4012 9.99492 11.2219 9.93164C11.0426 9.86484 10.9125 9.8332 10.7824 10.0301C10.6523 10.227 10.2797 10.6629 10.1637 10.7965C10.0512 10.9266 9.93516 10.9441 9.7418 10.8457C8.5957 10.2727 7.84336 9.82266 7.0875 8.52539C6.88711 8.18086 7.28789 8.20547 7.66055 7.46016C7.72383 7.33008 7.69219 7.21758 7.64297 7.11914C7.59375 7.0207 7.20352 6.06094 7.0418 5.6707C6.88359 5.29102 6.72188 5.34375 6.60234 5.33672C6.48984 5.32969 6.35977 5.32969 6.22969 5.32969C6.09961 5.32969 5.88867 5.37891 5.70937 5.57227C5.53008 5.76914 5.02734 6.24023 5.02734 7.2C5.02734 8.15977 5.72695 9.08789 5.82188 9.21797C5.92031 9.34805 7.19648 11.3168 9.15469 12.1641C10.3922 12.6984 10.8773 12.7441 11.4961 12.6527C11.8723 12.5965 12.6492 12.1816 12.8109 11.7246C12.9727 11.2676 12.9727 10.8773 12.9234 10.7965C12.8777 10.7086 12.7477 10.6594 12.5543 10.5645Z" fill="white"/>
</svg>
