<svg width="16" height="16" viewBox="0 0 16 16" fill="none" xmlns="http://www.w3.org/2000/svg">
<path d="M8.80278 1.38867C8.65556 1.08312 8.34444 0.888672 8.00278 0.888672C7.66111 0.888672 7.35278 1.08312 7.20278 1.38867L5.41667 5.06367L1.42778 5.65256C1.09444 5.70256 0.816667 5.93589 0.713889 6.25534C0.611111 6.57478 0.694444 6.92756 0.933333 7.16367L3.82778 10.0276L3.14444 14.0748C3.08889 14.4081 3.22778 14.747 3.50278 14.9442C3.77778 15.1414 4.14167 15.1664 4.44167 15.0081L8.00556 13.1053L11.5694 15.0081C11.8694 15.1664 12.2333 15.1442 12.5083 14.9442C12.7833 14.7442 12.9222 14.4081 12.8667 14.0748L12.1806 10.0276L15.075 7.16367C15.3139 6.92756 15.4 6.57478 15.2944 6.25534C15.1889 5.93589 14.9139 5.70256 14.5806 5.65256L10.5889 5.06367L8.80278 1.38867Z" fill="#F9A023"/>
</svg>
