<svg width="16" height="16" viewBox="0 0 16 16" fill="none" xmlns="http://www.w3.org/2000/svg">
<path d="M7.9972 0.888672C8.25275 0.888672 8.48609 1.03312 8.5972 1.26367L10.5028 5.18867L14.7583 5.81645C15.0083 5.85256 15.2166 6.02756 15.2944 6.26923C15.3722 6.51089 15.3083 6.77201 15.1305 6.94978L12.0444 10.0109L12.7722 14.3331C12.8139 14.5831 12.7111 14.8359 12.5028 14.9859C12.2944 15.1359 12.0222 15.1526 11.8 15.0331L7.99442 12.9998L4.19442 15.0303C3.96942 15.1498 3.6972 15.1331 3.49164 14.9831C3.28609 14.8331 3.18053 14.5803 3.2222 14.3303L3.94998 10.0081L0.863866 6.94978C0.68331 6.77201 0.622199 6.50812 0.699977 6.26923C0.777754 6.03034 0.986088 5.85534 1.23609 5.81645L5.49164 5.18867L7.3972 1.26367C7.51109 1.03312 7.74164 0.888672 7.9972 0.888672ZM7.9972 3.08312L6.53887 6.08867C6.44164 6.28589 6.25553 6.42478 6.03609 6.45812L2.74998 6.94145L5.13609 9.30534C5.28887 9.45812 5.36109 9.67478 5.32498 9.88867L4.76109 13.2137L7.68331 11.6526C7.88053 11.547 8.11664 11.547 8.31109 11.6526L11.2333 13.2137L10.6722 9.89145C10.6361 9.67756 10.7055 9.46089 10.8611 9.30812L13.2472 6.94423L9.96109 6.45812C9.74442 6.42478 9.55553 6.28867 9.45831 6.08867L7.9972 3.08312Z" fill="#F9A023"/>
</svg>
