<svg width="16" height="16" viewBox="0 0 16 16" fill="none" xmlns="http://www.w3.org/2000/svg">
<path d="M5.75 0.75C5.75 0.334375 5.41563 0 5 0C4.58437 0 4.25 0.334375 4.25 0.75V2H3C1.89688 2 1 2.89687 1 4V4.5V6V14C1 15.1031 1.89688 16 3 16H13C14.1031 16 15 15.1031 15 14V6V4.5V4C15 2.89687 14.1031 2 13 2H11.75V0.75C11.75 0.334375 11.4156 0 11 0C10.5844 0 10.25 0.334375 10.25 0.75V2H5.75V0.75ZM2.5 6H13.5V14C13.5 14.275 13.275 14.5 13 14.5H3C2.725 14.5 2.5 14.275 2.5 14V6Z" fill="#020817"/>
</svg>
