<svg width="20" height="20" viewBox="0 0 20 20" fill="none" xmlns="http://www.w3.org/2000/svg">
<path d="M6.44109 0.961771C6.14033 0.235244 5.3474 -0.151456 4.58962 0.0555656L1.15229 0.99302C0.472633 1.18051 0 1.79767 0 2.50076C0 12.1643 7.83555 19.9999 17.4991 19.9999C18.2022 19.9999 18.8194 19.5273 19.0069 18.8476L19.9443 15.4103C20.1514 14.6525 19.7647 13.8596 19.0381 13.5588L15.2883 11.9964C14.6516 11.7308 13.9134 11.9144 13.4798 12.4495L11.9018 14.3752C9.1519 13.0745 6.92544 10.848 5.62473 8.09814L7.55041 6.524C8.08554 6.08652 8.26913 5.35218 8.00352 4.71549L6.44109 0.965677V0.961771Z" fill="#0364C9"/>
</svg>
