<svg width="20" height="20" viewBox="0 0 20 20" fill="none" xmlns="http://www.w3.org/2000/svg">
<path d="M18.75 8.19961C17.0303 8.20372 15.3527 7.6674 13.9543 6.66641V13.6477C13.9538 14.9407 13.5586 16.2027 12.8215 17.265C12.0844 18.3274 11.0406 19.1393 9.82952 19.5924C8.61848 20.0455 7.298 20.118 6.04463 19.8003C4.79126 19.4826 3.66475 18.7899 2.81572 17.8147C1.9667 16.8395 1.43563 15.6283 1.29353 14.3431C1.15143 13.058 1.40508 11.76 2.02055 10.6229C2.63602 9.48578 3.58398 8.56366 4.73767 7.97983C5.89136 7.39601 7.1958 7.17832 8.47656 7.35586V10.8672C7.89048 10.6828 7.26114 10.6884 6.67841 10.8831C6.09567 11.0777 5.58935 11.4515 5.23175 11.9511C4.87414 12.4507 4.68353 13.0505 4.68715 13.6649C4.69077 14.2793 4.88843 14.8768 5.25189 15.3721C5.61536 15.8675 6.12605 16.2353 6.71104 16.4231C7.29602 16.6109 7.92538 16.609 8.50925 16.4178C9.09311 16.2265 9.60162 15.8557 9.96215 15.3582C10.3227 14.8607 10.5168 14.262 10.5168 13.6477V0H13.9543C13.9519 0.290289 13.9762 0.580182 14.0269 0.866016C14.1464 1.50409 14.3948 2.1111 14.7568 2.6499C15.1189 3.1887 15.5871 3.64796 16.1328 3.99961C16.9091 4.51293 17.8193 4.78652 18.75 4.78633V8.19961Z" fill="white"/>
</svg>
