<svg width="19" height="18" viewBox="0 0 19 18" fill="none" xmlns="http://www.w3.org/2000/svg">
<path d="M4.34987 13.7566C4.80339 13.4262 5.3905 13.3418 5.91784 13.5316C6.84948 13.8691 7.89362 14.0625 9.00456 14.0625C13.3885 14.0625 16.3171 11.2324 16.3171 8.4375C16.3171 5.64258 13.3885 2.8125 9.00456 2.8125C4.62057 2.8125 1.69206 5.64258 1.69206 8.4375C1.69206 9.5625 2.128 10.6453 2.94714 11.5734C3.24948 11.9145 3.39714 12.3645 3.36198 12.8215C3.31276 13.4578 3.16159 14.0414 2.96471 14.5582C3.56237 14.2805 4.05807 13.9711 4.34987 13.7602V13.7566ZM0.749871 15.184C0.813152 15.0891 0.872918 14.9941 0.929168 14.8992C1.28073 14.3156 1.61471 13.5492 1.68151 12.6879C0.626824 11.4891 0.00455819 10.023 0.00455819 8.4375C0.00455819 4.39805 4.03347 1.125 9.00456 1.125C13.9757 1.125 18.0046 4.39805 18.0046 8.4375C18.0046 12.477 13.9757 15.75 9.00456 15.75C7.70026 15.75 6.46276 15.525 5.34479 15.1207C4.92643 15.4266 4.2444 15.8449 3.43581 16.1965C2.90495 16.4285 2.30026 16.6395 1.67448 16.7625C1.64636 16.7695 1.61823 16.773 1.5901 16.7801C1.43542 16.8082 1.28425 16.8328 1.12604 16.8469C1.11901 16.8469 1.10846 16.8504 1.10143 16.8504C0.922136 16.868 0.742839 16.8785 0.563543 16.8785C0.335027 16.8785 0.131121 16.7414 0.0432301 16.5305C-0.0446606 16.3195 0.00455818 16.0805 0.162761 15.9187C0.306902 15.7711 0.43698 15.6129 0.560027 15.4441C0.619793 15.3633 0.676043 15.2824 0.728777 15.2016C0.732293 15.1945 0.735808 15.191 0.739324 15.184H0.749871Z" fill="#F8FAFC"/>
</svg>
